<svg xmlns="http://www.w3.org/2000/svg" width="97.201" height="122.295" viewBox="0 0 97.201 122.295" fill="none">
  <path d="M 90.508 5.641 C 92.357 5.785 94.335 7.222 96.429 9.938 C 96.43 10.049 96.683 44.444 97.193 113.121 C 97.305 116.599 96.224 118.508 93.943 118.854 C 55.597 121.15 36.427 122.295 36.427 122.295 C 36.346 122.281 25.615 120.468 4.231 116.851 C 1.358 116.709 -0.041 114.638 0.026 110.642 C 0.026 110.642 0.058 78.695 0.121 14.81 C -0.354 12.748 0.568 11.539 2.893 11.182 C 2.946 11.164 13.998 7.434 36.05 0 L 90.508 5.641 Z M 38.873 116.79 C 38.873 116.79 56.492 115.737 91.731 113.629 C 93.824 113.309 94.823 111.556 94.716 108.36 C 94.249 45.141 94.015 13.528 94.015 13.528 C 92.094 11.034 90.275 9.714 88.574 9.584 C 55.255 6.131 38.574 4.404 38.525 4.398 C 38.755 79.327 38.873 116.79 38.873 116.79 Z" fill="currentColor" fill-rule="nonzero"></path>
</svg>