<svg xmlns="http://www.w3.org/2000/svg" width="36.943" height="42.479" viewBox="0 0 36.943 42.479" fill="none">
  <path d="M 18.472 0 C 28.672 0 36.943 9.511 36.943 21.24 C 36.943 32.969 28.672 42.479 18.472 42.479 C 8.271 42.478 0 32.969 0 21.24 C 0 9.511 8.271 0 18.472 0 Z M 18.473 5.572 C 10.945 5.572 4.846 12.589 4.846 21.241 C 4.846 29.896 10.946 36.909 18.473 36.909 C 25.999 36.909 32.099 29.896 32.1 21.241 C 32.1 12.589 26 5.573 18.473 5.572 Z M 18.473 13.962 C 21.968 13.962 24.803 17.221 24.803 21.241 C 24.802 25.261 21.968 28.517 18.473 28.518 C 14.977 28.518 12.143 25.261 12.143 21.241 C 12.143 17.221 14.977 13.962 18.473 13.962 Z" fill="currentColor" fill-rule="nonzero"></path>
</svg>