<svg xmlns="http://www.w3.org/2000/svg" width="36.943" height="42.479" viewBox="0 0 36.943 42.479" fill="none">
  <path d="M 18.472 0 C 28.672 0 36.943 9.511 36.943 21.24 C 36.943 32.969 28.672 42.479 18.472 42.479 C 8.271 42.478 0 32.969 0 21.24 C 0 9.511 8.271 0 18.472 0 Z M 18.473 5.571 C 10.946 5.571 4.846 12.588 4.846 21.24 C 4.846 29.895 10.946 36.908 18.473 36.908 C 26 36.908 32.099 29.895 32.1 21.24 C 32.099 12.589 26 5.572 18.473 5.571 Z M 18.473 13.961 C 21.968 13.961 24.803 17.22 24.803 21.24 C 24.803 25.26 21.968 28.516 18.473 28.517 C 14.977 28.517 12.143 25.26 12.143 21.24 C 12.143 17.22 14.977 13.961 18.473 13.961 Z" fill="currentColor" fill-rule="nonzero"></path>
</svg>