<svg xmlns="http://www.w3.org/2000/svg" width="175.541" height="220.859" viewBox="0 0 175.541 220.859" fill="none">
  <path d="M 175.527 204.292 C 174.605 80.063 174.146 17.948 174.146 17.948 C 170.365 13.042 166.792 10.448 163.454 10.188 C 97.886 3.396 65.105 0 65.105 0 C 25.183 13.458 5.224 20.193 5.224 20.193 C 1.027 20.839 -0.64 23.021 0.219 26.745 C 0.105 142.12 0.047 199.813 0.047 199.813 C -0.072 207.031 2.454 210.771 7.641 211.026 C 46.407 217.583 65.787 220.859 65.787 220.859 C 65.787 220.859 100.407 218.792 169.657 214.646 C 173.777 214.021 175.73 210.573 175.527 204.292 Z M 42.412 124.854 L 50.631 124.854 C 52.079 124.854 53.266 123.667 53.266 122.219 L 53.266 33.193 C 53.266 31.74 52.079 30.552 50.631 30.552 L 42.412 30.552 C 40.959 30.552 39.771 31.74 39.771 33.193 L 39.771 122.219 C 39.771 123.667 40.959 124.854 42.412 124.854 Z" fill="currentColor" fill-rule="evenodd"></path>
</svg>