<svg xmlns="http://www.w3.org/2000/svg" width="59.089" height="14.704" viewBox="0 0 59.089 14.704" fill="none">
  <path d="M 59.06 3.706 C 59.302 5.771 58.004 7.683 55.98 8.239 C 54.316 8.698 52.507 8.813 50.8 9.061 C 49.067 9.312 47.334 9.566 45.6 9.817 C 41.929 10.35 38.229 10.702 34.54 11.106 C 27.659 11.859 20.769 12.761 13.865 13.266 C 9.954 13.552 6.101 14.131 2.217 14.679 C 1.265 14.815 0.307 14.402 0.051 13.399 C -0.177 12.51 0.382 11.409 1.334 11.23 C 4.757 10.587 8.218 10.045 11.59 9.171 C 15.024 8.277 18.471 7.489 21.931 6.717 C 25.332 5.958 28.732 5.197 32.135 4.441 C 35.59 3.677 39.042 2.812 42.523 2.168 C 44.418 1.82 46.31 1.471 48.205 1.122 C 50.451 0.706 52.732 0.141 55.017 0.005 C 57.09 -0.116 58.832 1.791 59.06 3.706 Z" fill="currentColor" fill-rule="nonzero"></path>
</svg>