<svg xmlns="http://www.w3.org/2000/svg" width="12.974" height="15.990" viewBox="0 0 12.974 15.990" fill="none">
  <path d="M 12.973 14.79 C 12.905 5.796 12.871 1.299 12.871 1.299 C 12.591 0.944 12.327 0.756 12.08 0.738 C 7.234 0.246 4.812 0 4.812 0 C 1.861 0.974 0.386 1.462 0.386 1.462 C 0.076 1.509 -0.047 1.667 0.016 1.936 C 0.008 10.289 0.004 14.466 0.004 14.466 C -0.005 14.989 0.181 15.259 0.565 15.278 C 3.43 15.753 4.862 15.99 4.862 15.99 C 4.862 15.99 7.421 15.84 12.539 15.54 C 12.843 15.495 12.988 15.245 12.973 14.79 Z M 3.135 9.039 L 3.742 9.039 C 3.849 9.039 3.937 8.953 3.937 8.848 L 3.937 2.403 C 3.937 2.298 3.849 2.212 3.742 2.212 L 3.135 2.212 C 3.027 2.212 2.939 2.298 2.939 2.403 L 2.939 8.848 C 2.939 8.953 3.027 9.039 3.135 9.039 Z" fill="currentColor" fill-rule="evenodd"></path>
</svg>