<svg width="256" height="256" viewBox="0 0 256 256" fill="none" xmlns="http://www.w3.org/2000/svg">
<path d="M234.782 127.481C235.024 129.546 233.726 131.458 231.701 132.015C230.037 132.473 228.229 132.589 226.522 132.837C224.789 133.087 223.055 133.341 221.322 133.592C217.651 134.126 213.951 134.478 210.262 134.881C203.381 135.634 196.491 136.537 189.587 137.041C185.676 137.327 181.823 137.907 177.938 138.455C176.987 138.59 176.029 138.178 175.772 137.174C175.545 136.286 176.104 135.184 177.056 135.005C180.479 134.362 183.94 133.82 187.311 132.946C190.746 132.052 194.192 131.265 197.653 130.492C201.053 129.733 204.454 128.972 207.857 128.216C211.312 127.452 214.764 126.587 218.245 125.944C220.14 125.595 222.031 125.246 223.926 124.897C226.173 124.482 228.454 123.916 230.738 123.781C232.812 123.66 234.554 125.566 234.782 127.481Z" fill="currentColor"/>
<path d="M195.107 80.896C195.533 82.5687 194.827 83.9097 193.806 85.1441C192.886 86.2573 191.92 87.3301 190.977 88.4232C187.291 92.6886 183.726 97.1097 179.868 101.225C177.736 103.501 175.602 105.776 173.471 108.052C171.32 110.344 169.203 112.954 166.59 114.719C165.762 115.279 164.499 115.022 163.827 114.342C163.051 113.56 163.068 112.51 163.484 111.564C164.069 110.232 164.92 109.124 165.765 107.942C166.596 106.777 167.435 105.615 168.286 104.461C169.918 102.252 171.55 100.04 173.185 97.8278C176.594 93.2106 180.294 88.801 183.888 84.325C184.719 83.2897 185.552 82.2572 186.383 81.2219C187.9 79.33 189.402 77.1872 192.249 77.9601C193.682 78.3494 194.737 79.4626 195.107 80.896Z" fill="currentColor"/>
<path d="M211.888 150.769C211.86 152.465 210.475 153.821 208.886 154.167C207.759 154.412 206.588 154.331 205.446 154.288C203.66 154.216 201.872 154.146 200.084 154.077C198.178 154.002 196.272 153.93 194.365 153.849C192.396 153.766 190.446 153.763 188.514 153.336C186.553 152.903 186.85 150.146 188.566 149.627C190.365 149.079 192.26 148.975 194.123 148.753C196.148 148.514 198.169 148.283 200.194 148.05C201.985 147.842 203.776 147.634 205.57 147.427C206.715 147.294 207.831 147.118 208.979 147.381C210.521 147.732 211.917 149.085 211.888 150.769Z" fill="currentColor"/>
<path d="M201.171 105.666C202.198 107.665 201.497 109.623 199.755 110.875C196.883 112.94 193.915 114.889 190.91 116.761C189.41 117.693 187.931 118.526 186.307 119.213C184.617 119.925 182.852 120.484 181.122 121.099C180.499 121.321 179.729 120.923 179.417 120.381C179.06 119.752 179.236 119.065 179.668 118.538C180.796 117.156 181.886 115.711 183.089 114.399C184.26 113.122 185.581 112.029 186.953 110.964C189.915 108.672 192.88 106.379 195.963 104.25C197.61 103.114 200.283 103.939 201.171 105.666Z" fill="currentColor"/>
<path d="M220.261 175.502C219.707 177.172 218.329 178.095 216.607 178.21C212.719 178.47 208.855 177.16 205.12 176.215C201.567 175.315 198.002 174.45 194.472 173.46C187.473 171.499 180.439 169.642 173.471 167.571C171.467 166.977 169.312 166.484 167.392 165.656C165.477 164.831 163.634 163.741 161.84 162.677C160.239 161.728 161.058 159.45 162.777 159.366C164.537 159.277 166.296 159.251 168.055 159.268C170.048 159.291 172.104 159.88 174.059 160.252C177.67 160.935 181.252 161.757 184.843 162.527C191.966 164.059 199.081 165.59 206.164 167.3C210.36 168.312 214.853 168.976 218.574 171.268C219.932 172.108 220.786 173.925 220.261 175.502Z" fill="currentColor"/>
<path d="M150.509 75.2373C152.357 75.3817 154.335 76.8187 156.429 79.5352C156.429 79.645 156.684 114.039 157.193 182.718C157.306 186.196 156.224 188.105 153.943 188.451C115.598 190.747 96.4275 191.892 96.4275 191.892C96.3757 191.883 85.6445 190.069 64.2312 186.447C61.3589 186.306 59.9599 184.235 60.0262 180.238C60.0262 180.238 60.0574 148.292 60.1209 84.4062C59.6451 82.3443 60.5682 81.136 62.8924 80.7783C62.8924 80.7783 73.944 77.0488 96.0496 69.5967L150.509 75.2373ZM98.8738 186.387C98.8929 186.386 116.511 185.333 151.731 183.226C153.825 182.905 154.823 181.152 154.717 177.957C154.249 114.737 154.015 83.125 154.015 83.125C152.095 80.6306 150.275 79.3104 148.573 79.1807C115.299 75.7324 98.618 74.0047 98.5252 73.9951C98.7559 148.924 98.8738 186.387 98.8738 186.387Z" fill="currentColor"/>
<path d="M126.554 135.72C136.755 135.72 145.026 145.232 145.026 156.961C145.026 168.69 136.755 178.199 126.554 178.199C116.354 178.199 108.083 168.69 108.083 156.961C108.083 145.232 116.354 135.721 126.554 135.72ZM126.555 141.293C119.028 141.293 112.928 148.31 112.928 156.962C112.928 165.616 119.028 172.63 126.555 172.63C134.082 172.629 140.182 165.616 140.182 156.962C140.182 148.31 134.082 141.293 126.555 141.293ZM126.555 149.682C130.05 149.683 132.885 152.942 132.885 156.962C132.885 160.982 130.05 164.238 126.555 164.238C123.06 164.238 120.225 160.982 120.225 156.962C120.225 152.941 123.06 149.682 126.555 149.682Z" fill="currentColor"/>
<path d="M126.554 84.7778C136.755 84.7778 145.026 94.289 145.026 106.018C145.026 117.747 136.755 127.256 126.554 127.256C116.354 127.256 108.083 117.747 108.083 106.018C108.083 94.2891 116.354 84.778 126.554 84.7778ZM126.555 90.3491C119.028 90.3491 112.928 97.3663 112.928 106.018C112.928 114.673 119.028 121.686 126.555 121.686C134.082 121.686 140.182 114.673 140.182 106.018C140.182 97.3665 134.082 90.3494 126.555 90.3491ZM126.555 98.7388C130.05 98.739 132.885 101.998 132.885 106.018C132.885 110.038 130.05 113.294 126.555 113.294C123.06 113.294 120.225 110.038 120.225 106.018C120.225 101.998 123.06 98.7388 126.555 98.7388Z" fill="currentColor"/>
</svg>
