<svg viewBox="-0.5 0.5 26.5 32.5" fill="none" xmlns="http://www.w3.org/2000/svg">
  <!-- Case outline -->
  <path d="M9.82891 31.8294C9.77141 32.1696 9.77139 32.1696 9.77138 32.1696H9.77091L9.76945 32.1693L9.76357 32.1684L9.74007 32.1644L9.64604 32.1485L9.26992 32.0849L7.76544 31.8305C6.4313 31.6049 4.43164 31.2667 1.76637 30.8158C1.32804 30.7892 0.961586 30.6088 0.720443 30.2525C0.489143 29.9107 0.403398 29.4507 0.411849 28.9221L0.411852 28.9189L0.411868 28.9014L0.411938 28.8314L0.412216 28.5515L0.413328 27.4319L0.417774 22.9537L0.435527 5.07854C0.373478 4.77579 0.399382 4.47047 0.590044 4.22087C0.776432 3.97686 1.06892 3.8551 1.38811 3.80145L1.39326 3.79971L1.4901 3.76703L1.87743 3.63636C2.22173 3.52022 2.7382 3.346 3.4268 3.11375C4.80403 2.64926 6.86992 1.9526 9.62455 1.02397L9.69566 1L9.7703 1.00773L9.73476 1.3509C9.7703 1.00773 9.77026 1.00773 9.7703 1.00773L9.77051 1.00775L9.77113 1.00782L9.77362 1.00808L9.78355 1.00911L9.82331 1.01322L9.98235 1.0297L10.6185 1.0956L13.1633 1.3592L23.3383 2.41318C23.5966 2.43378 23.9786 2.50336 24.3272 2.69424C24.6867 2.89114 25.0241 3.22724 25.1219 3.7661L25.1254 3.78489L25.1266 3.80393C25.1606 4.29373 25.1767 7.09948 25.2089 12.6959C25.2325 16.7696 25.2643 22.3221 25.3179 29.5364C25.3324 29.9976 25.2707 30.4047 25.0918 30.7205C24.9017 31.0558 24.5974 31.2551 24.2147 31.3132L24.1993 31.3155L24.1835 31.3164C19.4053 31.6024 15.8218 31.8169 13.4328 31.9597C12.2384 32.0311 11.3425 32.0846 10.7453 32.1203L10.0734 32.1605L9.90546 32.1706L9.86348 32.1731L9.85298 32.1736L9.85036 32.1739H9.8497H9.84953C9.8495 32.1739 9.84947 32.1739 9.82891 31.8294ZM9.82891 31.8294L9.77138 32.1696L9.8102 32.1762L9.84953 32.1739L9.82891 31.8294Z" fill="currentColor"/>
  <!-- Inner panel — transparent -->
  <path fill-rule="evenodd" clip-rule="evenodd" d="M24.3555 28.3565C24.2391 12.6008 24.1809 5.695 24.1809 4.72254C24.081 3.832 23.2487 3.77164 22.8246 3.73929C14.5086 2.87751 10.3514 2.44698 10.3514 2.44698C10.4089 21.1208 10.4384 30.4574 10.4384 30.4574C10.4384 30.4574 14.8292 30.1951 23.6117 29.6696C24.1334 29.5898 24.3821 29.1528 24.3555 28.3565Z" fill="transparent"/>
  <!-- Top speaker -->
  <circle cx="17.3369" cy="10.4841" r="5.523" fill="currentColor"/>
  <circle cx="17.3369" cy="10.4841" r="4.145" fill="transparent"/>
  <circle cx="17.3369" cy="10.4841" r="2.073" fill="currentColor"/>
  <!-- Bottom speaker -->
  <circle cx="17.3369" cy="23.124" r="5.523" fill="currentColor"/>
  <circle cx="17.3369" cy="23.124" r="4.145" fill="transparent"/>
  <circle cx="17.3369" cy="23.124" r="2.073" fill="currentColor"/>
  <!-- Orange spine -->
  <path fill-rule="evenodd" clip-rule="evenodd" d="M0.756845 28.9249C0.756845 28.9249 0.764751 20.9635 0.780564 5.04168C0.661969 4.52777 0.89197 4.22661 1.47129 4.13749C1.47129 4.13749 4.22553 3.20814 9.73476 1.35089C9.79728 21.67 9.82891 31.8294 9.82891 31.8294C9.82891 31.8294 7.15444 31.3773 1.80478 30.4725C1.08891 30.4373 0.740313 29.9212 0.756845 28.9249Z" fill="currentColor"/>
</svg>
